<svg xmlns="http://www.w3.org/2000/svg" xmlns:xlink="http://www.w3.org/1999/xlink" width="980" height="912" viewBox="0 0 980 912">
  <defs>
    <style>
      .cls-1 {
        fill: #DEDEDE;
        fill-rule: evenodd;
      }
    </style>
  </defs>
  
  <path id="Relleno_de_color_1" data-name="Relleno de color 1" class="cls-1" d="M567,774c-85.669.839-175.392,15.036-201-47-8.985-21.766-5-60.547-5-90,0-31.537-7.081-106.018,11-118,56.975-37.757,41.009,107.852,41,147,0,13.888-2.334,33.688,3,43,12.2,21.306,114.2,13.07,151,13V353c0-52.772-8.617-128.078,10-165,27.442-54.425,97.953-70.532,155-95l93-40V52H534c-24.87,0-95.437-5.915-110,4-18.651,12.7-11.01,115.159-11,150,0,12.072,2.058,29.14-2,38-9.2,20.1-44.164,16.931-50-4V156c0-58.143-5.593-113.752,27-139C412.021-1.608,449.039,0,493,0H855c21.753,0,50.726-3.5,69,2,23.068,6.944,42.245,23.761,51,45,12.816,31.092,5,127.407,5,171V600c0,83.639,6.932,142.856-41,180-23.09,17.893-56.732,26.874-85,39L680,895c-24.685,10.617-63.633,27.339-91,7C560.487,880.81,566.517,823.792,567,774ZM924,67L712,159c-24.66,10.633-63.424,18.893-79,39-23.328,30.115-14,107.333-14,159V714c0,30.79-6.474,126.291,3,146,24.4-2.4,49.153-19.983,70-29l161-69c27.984-12.066,59.093-18.924,71-47,11.341-26.741,4-79.825,4-114V136C928,119.583,933.766,75.035,924,67ZM252,206c27.739-.056,37.077,20.077,51,34L404,341c10.663,10.662,40.027,27.1,35,51-4.064,19.324-76.02,82.019-93,99-14.03,14.031-69.725,81.911-93,77-15.244-3.216-29.111-24.822-17-42L349,413H78c-32.355,0-89.89,8.8-78-34,7.131-25.67,53.9-18,86-18H349L236,248C228.086,225.281,235.341,215.53,252,206Z"/>
</svg>
